<svg width="16" height="16" viewBox="0 0 16 16" fill="none" xmlns="http://www.w3.org/2000/svg">
<path d="M3.74335 13.3334C3.43624 13.3334 3.18002 13.2307 2.97468 13.0254C2.76935 12.8201 2.66646 12.5636 2.66602 12.2561V3.74408C2.66602 3.43697 2.7689 3.18075 2.97468 2.97541C3.18046 2.77008 3.43668 2.66719 3.74335 2.66675H7.67868C7.77379 2.66675 7.85313 2.69853 7.91668 2.76208C7.98024 2.82564 8.01202 2.90497 8.01202 3.00008C8.01202 3.09519 7.98024 3.17453 7.91668 3.23808C7.85313 3.30164 7.77379 3.33341 7.67868 3.33341H3.74335C3.64068 3.33341 3.54646 3.37608 3.46068 3.46141C3.3749 3.54675 3.33224 3.64097 3.33268 3.74408V12.2567C3.33268 12.359 3.37535 12.453 3.46068 12.5387C3.54602 12.6245 3.64002 12.6672 3.74268 12.6667H7.67868C7.77379 12.6667 7.85313 12.6985 7.91668 12.7621C7.98024 12.8256 8.01202 12.905 8.01202 13.0001C8.01202 13.0952 7.98024 13.1745 7.91668 13.2381C7.85313 13.3016 7.77379 13.3334 7.67868 13.3334H3.74335ZM12.0393 8.33341H6.46068C6.36602 8.33341 6.2869 8.30164 6.22335 8.23808C6.15979 8.17453 6.12779 8.09519 6.12735 8.00008C6.1269 7.90497 6.15868 7.82564 6.22268 7.76208C6.28668 7.69853 6.36602 7.66675 6.46068 7.66675H12.0393L10.7253 6.35275C10.6627 6.29053 10.6293 6.21541 10.6253 6.12741C10.6209 6.03897 10.6542 5.95808 10.7253 5.88475C10.796 5.81141 10.8745 5.77408 10.9607 5.77275C11.0473 5.77142 11.1273 5.80741 11.2007 5.88075L12.9433 7.62275C13.0509 7.73075 13.1047 7.85653 13.1047 8.00008C13.1047 8.14364 13.0507 8.26941 12.9427 8.37741L11.2007 10.1194C11.1358 10.1843 11.0587 10.2183 10.9693 10.2214C10.88 10.2245 10.7987 10.1892 10.7253 10.1154C10.6542 10.0421 10.6193 9.96275 10.6207 9.87741C10.622 9.79208 10.658 9.7143 10.7287 9.64408L12.0393 8.33341Z" fill="white" style="fill:white;fill-opacity:1;"/>
</svg>
