<svg width="16" height="16" viewBox="0 0 16 16" fill="none" xmlns="http://www.w3.org/2000/svg">
<path d="M8.00003 14.1666C9.33962 14.1663 10.6427 13.7298 11.7122 12.9231C12.7816 12.1165 13.5593 10.9835 13.9277 9.69551C14.296 8.40755 14.2349 7.03468 13.7537 5.78452C13.2724 4.53436 12.3972 3.47491 11.2603 2.76639C10.1234 2.05788 8.78672 1.73883 7.4524 1.8575C6.11808 1.97618 4.85868 2.52612 3.86469 3.42416C2.87069 4.32219 2.19615 5.51948 1.94308 6.83495C1.69001 8.15042 1.87218 9.51252 2.46203 10.7153C2.53403 10.8619 2.55803 11.0273 2.52137 11.1859L1.97737 13.5433C1.96203 13.6094 1.96379 13.6784 1.98248 13.7437C2.00117 13.809 2.03617 13.8684 2.08419 13.9164C2.13221 13.9645 2.19166 13.9995 2.25695 14.0181C2.32224 14.0368 2.39121 14.0386 2.45737 14.0233L4.81403 13.4786C4.97315 13.4438 5.13941 13.4649 5.2847 13.5386C6.12963 13.9535 7.05872 14.1684 8.00003 14.1666Z" stroke="white" style="stroke:white;stroke-opacity:1;" stroke-linecap="round" stroke-linejoin="round"/>
<path d="M6.20117 6.47261C6.20114 6.18711 6.26905 5.90571 6.39929 5.65164C6.52952 5.39758 6.71834 5.17815 6.95015 5.01149C7.18195 4.84483 7.45009 4.73572 7.7324 4.69318C8.01472 4.65064 8.3031 4.67589 8.57372 4.76684C8.84435 4.8578 9.08944 5.01184 9.28876 5.21625C9.48808 5.42065 9.6359 5.66956 9.72 5.94239C9.8041 6.21522 9.82207 6.50415 9.77243 6.7853C9.72279 7.06645 9.60696 7.33175 9.43451 7.55928C9.36742 7.63368 9.2962 7.70423 9.22117 7.77061C9.15984 7.82261 9.12984 7.84395 9.06984 7.88461L8.41717 8.33461C8.25581 8.44564 8.1239 8.59428 8.03284 8.76769C7.94178 8.94111 7.8943 9.13408 7.89451 9.32995" stroke="white" style="stroke:white;stroke-opacity:1;" stroke-linecap="round" stroke-linejoin="round"/>
<path d="M7.88542 11.8265C8.25361 11.8265 8.55208 11.528 8.55208 11.1598C8.55208 10.7916 8.25361 10.4932 7.88542 10.4932C7.51723 10.4932 7.21875 10.7916 7.21875 11.1598C7.21875 11.528 7.51723 11.8265 7.88542 11.8265Z" fill="white" style="fill:white;fill-opacity:1;"/>
</svg>
